<svg width="80" height="37" viewBox="0 0 80 37" fill="none" xmlns="http://www.w3.org/2000/svg">
<rect x="0.5" y="1.06348" width="79" height="35" rx="17.5" fill="white" stroke="#E2E2E2"/>
<path d="M25.5897 16.735C25.8617 16.6783 26.1223 16.6386 26.3717 16.616C26.621 16.5876 26.8618 16.5735 27.0942 16.5735C27.7402 16.5735 28.3097 16.6698 28.8027 16.8625C29.2957 17.0551 29.7093 17.3215 30.0437 17.6615C30.378 18.0015 30.6302 18.401 30.8002 18.86C30.9702 19.3133 31.0552 19.8035 31.0552 20.3305C31.0552 20.9821 30.939 21.5771 30.7067 22.1155C30.48 22.6538 30.1627 23.1156 29.7547 23.501C29.3467 23.8806 28.8622 24.1753 28.3012 24.385C27.7458 24.5946 27.1395 24.6995 26.4822 24.6995C26.0968 24.6995 25.7313 24.6598 25.3857 24.5805C25.04 24.5011 24.7142 24.3963 24.4082 24.266C24.1078 24.13 23.8273 23.977 23.5667 23.807C23.3117 23.6313 23.0822 23.4471 22.8782 23.2545L23.5242 22.362C23.6602 22.1693 23.8387 22.073 24.0597 22.073C24.2013 22.073 24.3458 22.1183 24.4932 22.209C24.6405 22.2996 24.8077 22.3988 24.9947 22.5065C25.1873 22.6141 25.4112 22.7133 25.6662 22.804C25.9268 22.8946 26.2385 22.94 26.6012 22.94C26.9865 22.94 27.3265 22.8776 27.6212 22.753C27.9158 22.6283 28.1595 22.4555 28.3522 22.2345C28.5505 22.0078 28.6978 21.7415 28.7942 21.4355C28.8962 21.1238 28.9472 20.7866 28.9472 20.424C28.9472 19.7553 28.7517 19.234 28.3607 18.86C27.9753 18.4803 27.403 18.2905 26.6437 18.2905C26.06 18.2905 25.4622 18.3981 24.8502 18.6135L23.5412 18.2395L24.5612 12.2725H30.6302V13.165C30.6302 13.4653 30.5367 13.709 30.3497 13.896C30.1627 14.083 29.8453 14.1765 29.3977 14.1765H26.0232L25.5897 16.735ZM41.435 18.418C41.435 19.489 41.3188 20.4211 41.0865 21.2145C40.8598 22.0021 40.5425 22.6538 40.1345 23.1695C39.7322 23.6851 39.2533 24.0705 38.698 24.3255C38.1483 24.5748 37.5533 24.6995 36.913 24.6995C36.2727 24.6995 35.6777 24.5748 35.128 24.3255C34.584 24.0705 34.1108 23.6851 33.7085 23.1695C33.3062 22.6538 32.9917 22.0021 32.765 21.2145C32.5383 20.4211 32.425 19.489 32.425 18.418C32.425 17.3413 32.5383 16.4091 32.765 15.6215C32.9917 14.8338 33.3062 14.1821 33.7085 13.6665C34.1108 13.1508 34.584 12.7683 35.128 12.519C35.6777 12.264 36.2727 12.1365 36.913 12.1365C37.5533 12.1365 38.1483 12.264 38.698 12.519C39.2533 12.7683 39.7322 13.1508 40.1345 13.6665C40.5425 14.1821 40.8598 14.8338 41.0865 15.6215C41.3188 16.4091 41.435 17.3413 41.435 18.418ZM39.2675 18.418C39.2675 17.5283 39.2023 16.7916 39.072 16.208C38.9417 15.6243 38.766 15.1596 38.545 14.814C38.3297 14.4683 38.0803 14.2275 37.797 14.0915C37.5137 13.9498 37.219 13.879 36.913 13.879C36.6127 13.879 36.3208 13.9498 36.0375 14.0915C35.7598 14.2275 35.5133 14.4683 35.298 14.814C35.0827 15.1596 34.9098 15.6243 34.7795 16.208C34.6548 16.7916 34.5925 17.5283 34.5925 18.418C34.5925 19.3076 34.6548 20.0443 34.7795 20.628C34.9098 21.2116 35.0827 21.6763 35.298 22.022C35.5133 22.3676 35.7598 22.6113 36.0375 22.753C36.3208 22.889 36.6127 22.957 36.913 22.957C37.219 22.957 37.5137 22.889 37.797 22.753C38.0803 22.6113 38.3297 22.3676 38.545 22.022C38.766 21.6763 38.9417 21.2116 39.072 20.628C39.2023 20.0443 39.2675 19.3076 39.2675 18.418Z" fill="#17181A"/>
<path fill-rule="evenodd" clip-rule="evenodd" d="M48.4306 16.5754C48.7001 16.2609 49.1736 16.2245 49.4881 16.494L52.5 19.0757L55.5119 16.494C55.8264 16.2245 56.2999 16.2609 56.5695 16.5754C56.839 16.8899 56.8026 17.3634 56.4881 17.6329L52.9881 20.6329C52.7072 20.8737 52.2928 20.8737 52.0119 20.6329L48.5119 17.6329C48.1974 17.3634 48.161 16.8899 48.4306 16.5754Z" fill="#17181A"/>
</svg>
